<?xml version="1.0" encoding="UTF-8" standalone="no"?><!DOCTYPE svg PUBLIC "-//W3C//DTD SVG 1.1//EN" "http://www.w3.org/Graphics/SVG/1.1/DTD/svg11.dtd"><svg width="100%" height="100%" viewBox="0 0 100 100" version="1.1" xmlns="http://www.w3.org/2000/svg" xmlns:xlink="http://www.w3.org/1999/xlink" xml:space="preserve" xmlns:serif="http://www.serif.com/" style="fill-rule:evenodd;clip-rule:evenodd;stroke-linejoin:round;stroke-miterlimit:2;"><g><path d="M82.248,35.806l0,-6.983c-0.019,-0 -0.038,-0.001 -0.057,-0.001c-0.007,-0 -0.014,0.001 -0.021,0.001l-64.418,-0l-0,6.983c-0,1.881 1.531,3.413 3.413,3.413l57.67,-0c1.882,-0 3.413,-1.532 3.413,-3.413Z" style="fill:#273052;fill-rule:nonzero;"/><path d="M73.719,96.987l0,-51.91l-47.438,0l-0,51.91c-0,1.664 1.349,3.013 3.013,3.013l4.534,-0l-0,-44.457c-0,-1.577 1.212,-2.935 2.787,-3.009c1.683,-0.079 3.071,1.261 3.071,2.926l0,44.54l7.547,-0l0,-44.457c0,-1.577 1.212,-2.935 2.788,-3.009c1.682,-0.079 3.071,1.261 3.071,2.926l-0,44.54l7.547,-0l-0,-44.457c-0,-1.577 1.212,-2.935 2.788,-3.009c1.682,-0.079 3.07,1.261 3.07,2.926l0,44.54l4.209,-0c1.664,-0 3.013,-1.349 3.013,-3.013Z" style="fill:#273052;fill-rule:nonzero;"/><path d="M82.815,22.952c5.856,-0.27 10.654,-5.068 10.924,-10.924c0.146,-3.175 -0.978,-6.185 -3.165,-8.475c-2.188,-2.291 -5.138,-3.553 -8.305,-3.553l-64.323,-0c-6.368,-0 -11.615,5.082 -11.696,11.329c-0.04,3.098 1.135,6.016 3.309,8.219c2.175,2.203 5.077,3.416 8.172,3.416c2.082,0 4.12,-0.562 5.894,-1.625c1.776,-1.066 2.02,-2.852 1.656,-4.168c-0.37,-1.334 -1.513,-2.76 -3.613,-2.76c-0.97,0 -1.89,0.371 -2.59,1.043c-1.167,1.12 -3.022,1.082 -4.142,-0.084c-1.121,-1.167 -1.083,-3.022 0.084,-4.142c1.796,-1.725 4.157,-2.675 6.648,-2.675c4.37,-0 8.091,2.835 9.259,7.055c0.713,2.576 0.338,5.198 -0.918,7.356l39.786,0c-1.36,-2.219 -1.731,-4.944 -0.916,-7.635c1.245,-4.116 4.82,-6.776 9.108,-6.776c2.545,-0 5.023,1.044 6.8,2.866c1.13,1.158 1.107,3.013 -0.051,4.143c-1.158,1.129 -3.013,1.106 -4.142,-0.052c-0.681,-0.698 -1.631,-1.099 -2.607,-1.099c-1.998,0 -3.118,1.351 -3.5,2.614c-0.182,0.6 -0.615,2.662 1.428,4.022c2.041,1.36 4.427,2.02 6.9,1.905Z" style="fill:#273052;fill-rule:nonzero;"/></g></svg>